<svg xmlns="http://www.w3.org/2000/svg" viewBox="-0.58 -0.35 62 40">
  <defs><style>.a{fill:#1d4caa;fill-rule:evenodd}.b{fill:#f8c311;fill-rule:evenodd}.c{fill:#dd2626;fill-rule:evenodd}.d{fill:#84c444;fill-rule:evenodd}</style></defs>
  <path class="a" d="M60,9.42c-3-9-18.7-11.76-35-6.24s-27,17.25-24,26.22,18.69,11.75,35,6.23S63.06,18.38,60,9.42ZM34.61,34.05C18.68,38.46,3.94,35.48,1.7,27.39S10.57,9.17,26.5,4.76s30.67-1.43,32.91,6.66S50.55,29.64,34.61,34.05Z" transform="translate(-0.58 -0.35)"/>
  <path class="a" d="M28.32,13.48h0l-.06.08v0a9,9,0,0,0-.5.76,5.85,5.85,0,0,0-.3.83l-2.39,8.36s0,.29-.21.35-.21-.35-.21-.35l-2.38-8.36a5.85,5.85,0,0,0-.3-.83,9,9,0,0,0-.5-.76v0l-.06-.08h0a1.12,1.12,0,0,0-1.59-.09,1.15,1.15,0,0,0-.06,1.44l.26.38a2.07,2.07,0,0,1,.23.58l2.94,10.12a4,4,0,0,0,.68,1.32,1.36,1.36,0,0,0,.5.41,1.09,1.09,0,0,0,.5.11,1.13,1.13,0,0,0,.51-.11,1.36,1.36,0,0,0,.5-.41,4,4,0,0,0,.68-1.32l2.94-10.12a2.07,2.07,0,0,1,.23-.58c.06-.09.17-.27.25-.38a1.06,1.06,0,1,0-1.64-1.35Z" transform="translate(-0.58 -0.35)"/>
  <path class="a" d="M23.32,8.82a2.3,2.3,0,0,1,3.25,3.26,2.3,2.3,0,0,1-3.25-3.26Z" transform="translate(-0.58 -0.35)"/>
  <path class="b" d="M37.36,27.37h0l-.06-.08v0c-.15-.21-.39-.57-.5-.76a5.85,5.85,0,0,1-.3-.83l-2.38-8.36S34.05,17,33.9,17s-.21.35-.21.35L31.3,25.68a5.85,5.85,0,0,1-.3.83c-.1.19-.35.55-.49.76v0l-.07.08h0A1.06,1.06,0,1,1,28.79,26l.26-.39a1.93,1.93,0,0,0,.22-.58l2.94-10.12a4.15,4.15,0,0,1,.68-1.32,1.25,1.25,0,0,1,.5-.4,1,1,0,0,1,.51-.11,1,1,0,0,1,.51.11,1.22,1.22,0,0,1,.49.4,4,4,0,0,1,.68,1.32l2.94,10.12a2,2,0,0,0,.23.58L39,26A1.13,1.13,0,0,1,39,27.46,1.12,1.12,0,0,1,37.36,27.37Z" transform="translate(-0.58 -0.35)"/>
  <path class="b" d="M32.36,8.82a2.3,2.3,0,0,1,3.25,3.26A2.3,2.3,0,0,1,32.36,8.82Z" transform="translate(-0.58 -0.35)"/>
  <path class="c" d="M44.9,18.43h0l-.06.08v0a8.73,8.73,0,0,0-.49.76,5.89,5.89,0,0,0-.31.83l-1,3.49s0,.29-.21.34-.21-.34-.21-.34l-1-3.43a5.73,5.73,0,0,0-.3-.82,9,9,0,0,0-.5-.77h0l-.06-.08h0a1.06,1.06,0,1,0-1.64,1.34l.25.39a1.9,1.9,0,0,1,.23.57L41.18,26a4,4,0,0,0,.68,1.33,1.31,1.31,0,0,0,.49.4,1.16,1.16,0,0,0,.51.11,1.13,1.13,0,0,0,.51-.11,1.34,1.34,0,0,0,.5-.4A4,4,0,0,0,44.55,26l1.51-5.24a2.42,2.42,0,0,1,.23-.58l.26-.38a1.07,1.07,0,1,0-1.65-1.35Z" transform="translate(-0.58 -0.35)"/>
  <path class="c" d="M41.32,13.77A2.31,2.31,0,0,1,44.58,17,2.31,2.31,0,0,1,41.32,13.77Z" transform="translate(-0.58 -0.35)"/>
  <path class="d" d="M18.76,27.44h0l-.06-.08h0c-.15-.21-.39-.58-.5-.77a5.73,5.73,0,0,1-.3-.82l-1-3.49s-.06-.29-.21-.35-.21.35-.21.35l-1,3.42a5.85,5.85,0,0,1-.3.83,9,9,0,0,1-.5.76v0l-.06.08h0a1.12,1.12,0,0,1-1.59.09A1.15,1.15,0,0,1,13,26c.08-.11.2-.28.26-.38a2,2,0,0,0,.23-.58L15,19.89a4,4,0,0,1,.68-1.32,1.22,1.22,0,0,1,.49-.4,1,1,0,0,1,.51-.11,1,1,0,0,1,.51.11,1.16,1.16,0,0,1,.49.4,4,4,0,0,1,.69,1.32l1.51,5.25a2.2,2.2,0,0,0,.23.57l.26.39a1.06,1.06,0,1,1-1.65,1.34Z" transform="translate(-0.58 -0.35)"/>
  <path class="d" d="M15.18,13.77A2.31,2.31,0,0,1,18.44,17,2.31,2.31,0,0,1,15.18,13.77Z" transform="translate(-0.58 -0.35)"/>
</svg>
