<svg xmlns="http://www.w3.org/2000/svg" width="186.49" height="38.12" viewBox="0 0 186.49 38.12"><defs><style>.a,.e{fill:#1d4caa;}.a,.b,.c,.d{fill-rule:evenodd;}.b{fill:#f8c311;}.c{fill:#dd2626;}.d{fill:#84c444;}</style></defs><path class="a" d="M71.65,21.59H67.4v-16h8A8.42,8.42,0,0,1,78,6a3.8,3.8,0,0,1,1.68,1,4.16,4.16,0,0,1,.93,1.8,10.51,10.51,0,0,1,.3,2.69,14.42,14.42,0,0,1-.24,2.9,3.93,3.93,0,0,1-.82,1.82,3.33,3.33,0,0,1-1.65,1,9.8,9.8,0,0,1-2.74.32H71.65Zm0-7.79h2.92a3.45,3.45,0,0,0,1.25-.16.89.89,0,0,0,.52-.62,5.77,5.77,0,0,0,.14-1.55,4.44,4.44,0,0,0-.14-1.31,1,1,0,0,0-.54-.64,3,3,0,0,0-1.23-.19H71.65Z" transform="translate(-0.58 -0.35)"/><path class="a" d="M106.43,18.85H100.7l-.78,2.74H95.49l4.79-16h6.47l4.86,16h-4.35Zm-.85-3.11-2-6.93h0l-1.94,6.93Z" transform="translate(-0.58 -0.35)"/><path class="a" d="M117,17.89h5.57V5.62h4.26V17.23a.66.66,0,0,0,.66.66h0a.66.66,0,0,1,.66.66v6.68h-4.05V21.59H112.71v-16H117Z" transform="translate(-0.58 -0.35)"/><path class="a" d="M134.08,9.11V12h6.81v3h-6.81V18.1h7.41v3.49H129.82v-16h11.52V9.11Z" transform="translate(-0.58 -0.35)"/><path class="a" d="M158.34,5.62v16h-4.26V15.33h-5.56v6.26h-4.26v-16h4.26v6h5.56v-6Z" transform="translate(-0.58 -0.35)"/><path class="a" d="M168.05,9.33V21.59h-4.26V9.33H159.7V5.62h12.65V9.33Z" transform="translate(-0.58 -0.35)"/><path class="a" d="M86.8,9.11V12h6.82v3H86.8V18.1h7.42v3.49H82.54v-16H94.07V9.11Z" transform="translate(-0.58 -0.35)"/><path class="a" d="M177.85,21.59h-4.26v-16h8a8.47,8.47,0,0,1,2.54.33,3.86,3.86,0,0,1,1.68,1,4.27,4.27,0,0,1,.93,1.8,10.51,10.51,0,0,1,.3,2.69,14.42,14.42,0,0,1-.24,2.9,4,4,0,0,1-.82,1.82,3.33,3.33,0,0,1-1.65,1,9.85,9.85,0,0,1-2.74.32h-3.77Zm0-7.79h2.91a3.41,3.41,0,0,0,1.25-.16.91.91,0,0,0,.53-.62,6.23,6.23,0,0,0,.14-1.55,4.81,4.81,0,0,0-.14-1.31,1,1,0,0,0-.54-.64,3,3,0,0,0-1.24-.19h-2.91Z" transform="translate(-0.58 -0.35)"/><path class="a" d="M60,9.42c-3-9-18.7-11.76-35-6.24s-27,17.25-24,26.22,18.69,11.75,35,6.23S63.06,18.38,60,9.42ZM34.61,34.05C18.68,38.46,3.94,35.48,1.7,27.39S10.57,9.17,26.5,4.76s30.67-1.43,32.91,6.66S50.55,29.64,34.61,34.05Z" transform="translate(-0.58 -0.35)"/><path class="a" d="M28.32,13.48h0l-.06.08v0a9,9,0,0,0-.5.76,5.85,5.85,0,0,0-.3.83l-2.39,8.36s0,.29-.21.35-.21-.35-.21-.35l-2.38-8.36a5.85,5.85,0,0,0-.3-.83,9,9,0,0,0-.5-.76v0l-.06-.08h0a1.12,1.12,0,0,0-1.59-.09,1.15,1.15,0,0,0-.06,1.44l.26.38a2.07,2.07,0,0,1,.23.58l2.94,10.12a4,4,0,0,0,.68,1.32,1.36,1.36,0,0,0,.5.41,1.09,1.09,0,0,0,.5.11,1.13,1.13,0,0,0,.51-.11,1.36,1.36,0,0,0,.5-.41,4,4,0,0,0,.68-1.32l2.94-10.12a2.07,2.07,0,0,1,.23-.58c.06-.09.17-.27.25-.38a1.06,1.06,0,1,0-1.64-1.35Z" transform="translate(-0.58 -0.35)"/><path class="a" d="M23.32,8.82a2.3,2.3,0,0,1,3.25,3.26,2.3,2.3,0,0,1-3.25-3.26Z" transform="translate(-0.58 -0.35)"/><path class="b" d="M37.36,27.37h0l-.06-.08v0c-.15-.21-.39-.57-.5-.76a5.85,5.85,0,0,1-.3-.83l-2.38-8.36S34.05,17,33.9,17s-.21.35-.21.35L31.3,25.68a5.85,5.85,0,0,1-.3.83c-.1.19-.35.55-.49.76v0l-.07.08h0A1.06,1.06,0,1,1,28.79,26l.26-.39a1.93,1.93,0,0,0,.22-.58l2.94-10.12a4.15,4.15,0,0,1,.68-1.32,1.25,1.25,0,0,1,.5-.4,1,1,0,0,1,.51-.11,1,1,0,0,1,.51.11,1.22,1.22,0,0,1,.49.4,4,4,0,0,1,.68,1.32l2.94,10.12a2,2,0,0,0,.23.58L39,26A1.13,1.13,0,0,1,39,27.46,1.12,1.12,0,0,1,37.36,27.37Z" transform="translate(-0.58 -0.35)"/><path class="b" d="M32.36,8.82a2.3,2.3,0,0,1,3.25,3.26A2.3,2.3,0,0,1,32.36,8.82Z" transform="translate(-0.58 -0.35)"/><path class="c" d="M44.9,18.43h0l-.06.08v0a8.73,8.73,0,0,0-.49.76,5.89,5.89,0,0,0-.31.83l-1,3.49s0,.29-.21.34-.21-.34-.21-.34l-1-3.43a5.73,5.73,0,0,0-.3-.82,9,9,0,0,0-.5-.77h0l-.06-.08h0a1.06,1.06,0,1,0-1.64,1.34l.25.39a1.9,1.9,0,0,1,.23.57L41.18,26a4,4,0,0,0,.68,1.33,1.31,1.31,0,0,0,.49.4,1.16,1.16,0,0,0,.51.11,1.13,1.13,0,0,0,.51-.11,1.34,1.34,0,0,0,.5-.4A4,4,0,0,0,44.55,26l1.51-5.24a2.42,2.42,0,0,1,.23-.58l.26-.38a1.07,1.07,0,1,0-1.65-1.35Z" transform="translate(-0.58 -0.35)"/><path class="c" d="M41.32,13.77A2.31,2.31,0,0,1,44.58,17,2.31,2.31,0,0,1,41.32,13.77Z" transform="translate(-0.58 -0.35)"/><path class="d" d="M18.76,27.44h0l-.06-.08h0c-.15-.21-.39-.58-.5-.77a5.73,5.73,0,0,1-.3-.82l-1-3.49s-.06-.29-.21-.35-.21.35-.21.35l-1,3.42a5.85,5.85,0,0,1-.3.83,9,9,0,0,1-.5.76v0l-.06.08h0a1.12,1.12,0,0,1-1.59.09A1.15,1.15,0,0,1,13,26c.08-.11.2-.28.26-.38a2,2,0,0,0,.23-.58L15,19.89a4,4,0,0,1,.68-1.32,1.22,1.22,0,0,1,.49-.4,1,1,0,0,1,.51-.11,1,1,0,0,1,.51.11,1.16,1.16,0,0,1,.49.4,4,4,0,0,1,.69,1.32l1.51,5.25a2.2,2.2,0,0,0,.23.57l.26.39a1.06,1.06,0,1,1-1.65,1.34Z" transform="translate(-0.58 -0.35)"/><path class="d" d="M15.18,13.77A2.31,2.31,0,0,1,18.44,17,2.31,2.31,0,0,1,15.18,13.77Z" transform="translate(-0.58 -0.35)"/><path class="e" d="M70.05,33.73c-.11,0-.21,0-.32,0h-.36a1.67,1.67,0,0,1-.71-.15,1.56,1.56,0,0,1-.57-.49,2.51,2.51,0,0,1-.37-.84,4.87,4.87,0,0,1-.14-1.24A3.56,3.56,0,0,1,68.11,29a1.65,1.65,0,0,1,1.42-.73h.26a.89.89,0,0,1,.26,0v-.83h1.22v.86a1.21,1.21,0,0,1,.36-.07H72a1.51,1.51,0,0,1,.71.16,1.53,1.53,0,0,1,.57.51,2.48,2.48,0,0,1,.37.85A4.82,4.82,0,0,1,73.74,31a4.63,4.63,0,0,1-.15,1.24,2.7,2.7,0,0,1-.41.87,1.58,1.58,0,0,1-1.34.7h-.3l-.27,0v.95H70.05Zm-.34-1h.19l.2,0V29.31h-.36a.76.76,0,0,0-.67.42A2.51,2.51,0,0,0,68.81,31,2.71,2.71,0,0,0,69,32.28.73.73,0,0,0,69.71,32.71Zm1.94-3.42h-.22a.87.87,0,0,0-.21,0v3.35a.32.32,0,0,0,.15,0h.2a.79.79,0,0,0,.68-.41A2.64,2.64,0,0,0,72.51,31a2.81,2.81,0,0,0-.22-1.24A.69.69,0,0,0,71.65,29.29Z" transform="translate(-0.58 -0.35)"/><path class="e" d="M74.93,27.64h3.41v1.13H76.16v1.68h2v1.13h-2v1.75h2.22v1.14H74.93Z" transform="translate(-0.58 -0.35)"/><path class="e" d="M84.72,35.68h-.86l-.12-1.21H80.23l-.12,1.21h-.86V33.33h.59a3.16,3.16,0,0,0,.18-.48,8.7,8.7,0,0,0,.25-1.07c.08-.47.15-1,.21-1.72s.08-1.49.07-2.42H84v5.69h.7Zm-1.93-2.35V28.77H81.71a23.53,23.53,0,0,1-.23,2.9,9.72,9.72,0,0,1-.36,1.66Z" transform="translate(-0.58 -0.35)"/><path class="e" d="M85.86,27.64h3.42v1.13H87.09v1.68h2v1.13h-2v1.75h2.22v1.14H85.86Z" transform="translate(-0.58 -0.35)"/><path class="e" d="M90.62,27.71a7.36,7.36,0,0,1,.77-.12,7.87,7.87,0,0,1,.84,0,4.3,4.3,0,0,1,.88.08,1.77,1.77,0,0,1,1.33,1,2.72,2.72,0,0,1,.22,1.16,2.93,2.93,0,0,1-.18,1.09,2.18,2.18,0,0,1-.49.73,1.74,1.74,0,0,1-.69.41,2.87,2.87,0,0,1-.82.13H92l-.13,0v2.35H90.62ZM91.85,31l.22,0h.22a1.84,1.84,0,0,0,.41,0,.9.9,0,0,0,.34-.2,1.08,1.08,0,0,0,.24-.39,1.91,1.91,0,0,0,.09-.63,1.73,1.73,0,0,0-.08-.55.82.82,0,0,0-.23-.35.8.8,0,0,0-.32-.19,1.32,1.32,0,0,0-.39-.06,1.75,1.75,0,0,0-.5.05Z" transform="translate(-0.58 -0.35)"/><path class="e" d="M98,32.91H96.35L96,34.47H94.73l2-6.88h1l2,6.88H98.38Zm-1.35-1h1.14l-.4-1.59-.15-1.07h0L97,30.33Z" transform="translate(-0.58 -0.35)"/><path class="e" d="M103.34,28.77h-1c0,1.24-.11,2.27-.19,3.1a5.44,5.44,0,0,1-.45,1.89,1.47,1.47,0,0,1-.26.39,1.45,1.45,0,0,1-.31.23.94.94,0,0,1-.3.12l-.29,0a2,2,0,0,1-.36,0,1.42,1.42,0,0,1-.29-.1l.14-1.11a.53.53,0,0,0,.35,0,.58.58,0,0,0,.29-.32,2,2,0,0,0,.2-.62c.06-.28.11-.64.16-1.07s.07-1,.09-1.55,0-1.29.06-2.09h3.42v6.83h-1.23Z" transform="translate(-0.58 -0.35)"/><path class="e" d="M106,27.64h1.23V30.1l.15,0,.2,0,.22,0H108a2.76,2.76,0,0,1,.77.1,1.47,1.47,0,0,1,.64.34,1.56,1.56,0,0,1,.43.67A3,3,0,0,1,110,32.2a2.47,2.47,0,0,1-.57,1.76,2.35,2.35,0,0,1-1.78.6h-.31l-.43,0-.48,0-.45-.08Zm1.23,5.73a1,1,0,0,0,.23.05h.27a1,1,0,0,0,.73-.26,1.26,1.26,0,0,0,.27-.92,1.79,1.79,0,0,0-.08-.56.82.82,0,0,0-.21-.34.71.71,0,0,0-.31-.16,1.62,1.62,0,0,0-.4-.05l-.27,0a.88.88,0,0,0-.23.06Z" transform="translate(-0.58 -0.35)"/><path class="e" d="M114.3,31.58h-1.86v2.89h-1.23V27.64h1.23v2.81h1.86V27.64h1.23v6.83H114.3Z" transform="translate(-0.58 -0.35)"/><path class="e" d="M119.73,32.91h-1.61l-.39,1.56h-1.22l2-6.88h1l2,6.88h-1.29Zm-1.34-1h1.13l-.39-1.59L119,29.25h0l-.16,1.08Z" transform="translate(-0.58 -0.35)"/><path class="e" d="M126.28,34.47h-1.23V31.75l-.52.18-1.08,2.54H122l1.11-2.32.49-.39a1.58,1.58,0,0,1-.86-.64,2.39,2.39,0,0,1-.34-1.38,2.62,2.62,0,0,1,.18-1,1.64,1.64,0,0,1,.49-.68,2,2,0,0,1,.77-.36,3.85,3.85,0,0,1,1-.11h.32l.38,0,.39.06.33.07Zm-1.23-5.74a.47.47,0,0,0-.17,0h-.22a1.14,1.14,0,0,0-.37.05.8.8,0,0,0-.3.19.93.93,0,0,0-.2.34,1.65,1.65,0,0,0-.07.54,1.2,1.2,0,0,0,.27.88.93.93,0,0,0,.69.27h.37Z" transform="translate(-0.58 -0.35)"/><path class="e" d="M134,34.19a1.48,1.48,0,0,1-.68.31,3.44,3.44,0,0,1-.84.1,2.63,2.63,0,0,1-1-.18,1.9,1.9,0,0,1-.79-.6,3,3,0,0,1-.54-1.1A6.13,6.13,0,0,1,130,31a5.87,5.87,0,0,1,.22-1.71,3.11,3.11,0,0,1,.58-1.09,2,2,0,0,1,.81-.57,2.76,2.76,0,0,1,.93-.16,4.08,4.08,0,0,1,.83.07,4.56,4.56,0,0,1,.58.18l-.24,1.08a2.26,2.26,0,0,0-.44-.15,3.25,3.25,0,0,0-.59-.05,1.15,1.15,0,0,0-1,.58,3.59,3.59,0,0,0-.36,1.83,5.8,5.8,0,0,0,.08,1,2.68,2.68,0,0,0,.27.77,1.46,1.46,0,0,0,.45.5,1.31,1.31,0,0,0,.67.17,1.74,1.74,0,0,0,.59-.09,2.58,2.58,0,0,0,.44-.22Z" transform="translate(-0.58 -0.35)"/><path class="e" d="M135.19,27.64h3.41v1.13h-2.18v1.68h2v1.13h-2v1.75h2.22v1.14h-3.45Z" transform="translate(-0.58 -0.35)"/><path class="e" d="M144,28.77h-1.61v5.7H141.2v-5.7h-1.62V27.64H144Z" transform="translate(-0.58 -0.35)"/><path class="e" d="M145.12,27.64h1.23V30.1l.15,0,.2,0,.22,0h.21a2.76,2.76,0,0,1,.77.1,1.47,1.47,0,0,1,.64.34,1.67,1.67,0,0,1,.44.67,3.24,3.24,0,0,1,.16,1.08,2.47,2.47,0,0,1-.57,1.76,2.35,2.35,0,0,1-1.78.6h-.31l-.43,0-.48,0-.45-.08Zm1.23,5.73a1,1,0,0,0,.23.05h.28a1,1,0,0,0,.72-.26,1.26,1.26,0,0,0,.27-.92,1.79,1.79,0,0,0-.08-.56.82.82,0,0,0-.21-.34.71.71,0,0,0-.31-.16,1.6,1.6,0,0,0-.39-.05l-.28,0a.88.88,0,0,0-.23.06Z" transform="translate(-0.58 -0.35)"/><path class="e" d="M154.14,31.54h-.27v2.93h-1.23V27.64h1.23v3l.25-.12,1.43-2.91h1.38l-1.56,2.87-.45.36.46.37,1.81,3.23h-1.5Z" transform="translate(-0.58 -0.35)"/><path class="e" d="M160.88,28.77h-1c0,1.24-.11,2.27-.19,3.1a5.22,5.22,0,0,1-.45,1.89,1.26,1.26,0,0,1-.26.39,1.08,1.08,0,0,1-.31.23.94.94,0,0,1-.3.12l-.29,0a2,2,0,0,1-.36,0,1.42,1.42,0,0,1-.29-.1l.14-1.11a.53.53,0,0,0,.35,0,.55.55,0,0,0,.29-.32,2.32,2.32,0,0,0,.21-.62c.05-.28.11-.64.15-1.07s.07-1,.09-1.55,0-1.29.06-2.09h3.42v6.83h-1.23Z" transform="translate(-0.58 -0.35)"/><path class="e" d="M166.79,30.83l.09-1h0l-.37,1-1.93,3.57h-1V27.64h1.23v3.57l-.11,1h0l.39-1.07,1.94-3.5H168v6.83h-1.22Z" transform="translate(-0.58 -0.35)"/><path class="e" d="M172.55,31.58h-1.86v2.89h-1.23V27.64h1.23v2.81h1.86V27.64h1.22v6.83h-1.22Z" transform="translate(-0.58 -0.35)"/><path class="e" d="M178.44,30.83l.1-1h0l-.37,1-1.94,3.57h-1V27.64h1.23v3.57l-.11,1h0l.39-1.07,1.94-3.5h.95v6.83h-1.23Z" transform="translate(-0.58 -0.35)"/><path class="e" d="M182.6,31.54h-.26v2.93h-1.23V27.64h1.23v3l.24-.12L184,27.64h1.38l-1.56,2.87-.46.36.47.37,1.81,3.23h-1.51Z" transform="translate(-0.58 -0.35)"/></svg>